<svg width="96" height="96" viewBox="0 0 96 96" fill="none" xmlns="http://www.w3.org/2000/svg">
<rect x="4" y="4" width="36" height="36" rx="12" stroke="#4751A6" stroke-width="8" stroke-linejoin="round"/>
<rect x="4" y="56" width="36" height="36" rx="12" stroke="#4751A6" stroke-width="8" stroke-linejoin="round"/>
<rect x="56" y="4" width="36" height="88" rx="12" stroke="#4751A6" stroke-width="8" stroke-linejoin="round"/>
<path d="M74.0133 56.288C73.2293 56.288 72.5253 56.112 71.9013 55.76C71.2773 55.392 70.8293 54.824 70.5573 54.056L65.4453 39.2H69.7893L73.6773 52.208C73.7093 52.304 73.7493 52.376 73.7973 52.424C73.8613 52.472 73.9333 52.496 74.0133 52.496C74.0933 52.496 74.1573 52.472 74.2053 52.424C74.2693 52.376 74.3173 52.304 74.3493 52.208L78.3093 39.2H82.5573L77.4693 54.056C77.1973 54.808 76.7493 55.368 76.1253 55.736C75.5013 56.104 74.7973 56.288 74.0133 56.288Z" fill="#4751A6"/>
<path d="M25.1084 30C23.7324 29.984 22.4924 29.76 21.3884 29.328C20.2844 28.896 19.3484 28.304 18.5804 27.552C17.8124 26.8 17.2204 25.92 16.8044 24.912C16.3884 23.888 16.1804 22.784 16.1804 21.6C16.1804 20.416 16.3884 19.32 16.8044 18.312C17.2204 17.288 17.8124 16.4 18.5804 15.648C19.3644 14.896 20.3004 14.304 21.3884 13.872C22.4924 13.44 23.7324 13.216 25.1084 13.2H27.7004V16.56H25.2044C24.4524 16.576 23.7644 16.712 23.1404 16.968C22.5324 17.224 22.0044 17.576 21.5564 18.024C21.1244 18.472 20.7884 19 20.5484 19.608C20.3244 20.216 20.2124 20.88 20.2124 21.6C20.2124 22.32 20.3244 22.984 20.5484 23.592C20.7884 24.2 21.1244 24.728 21.5564 25.176C22.0044 25.624 22.5324 25.976 23.1404 26.232C23.7644 26.488 24.4524 26.624 25.2044 26.64H27.7004V30H25.1084Z" fill="#4751A6"/>
<path d="M14.6867 82V65.2H18.7187V71.8H25.2707V65.2H29.3027V82H25.2707V75.16H18.7187V82H14.6867Z" fill="#4751A6"/>
</svg>
