<svg width="96" height="96" viewBox="0 0 96 96" fill="none" xmlns="http://www.w3.org/2000/svg">
<rect x="4" y="4" width="36" height="36" rx="12" stroke="#4751A6" stroke-width="8" stroke-linejoin="round"/>
<rect x="4" y="56" width="36" height="36" rx="12" stroke="#4751A6" stroke-width="8" stroke-linejoin="round"/>
<rect x="56" y="56" width="36" height="36" rx="12" stroke="#4751A6" stroke-width="8" stroke-linejoin="round"/>
<rect x="56" y="4" width="36" height="36" rx="12" stroke="#4751A6" stroke-width="8" stroke-linejoin="round"/>
<path d="M14.6867 82V65.2H18.7187V71.8H25.2707V65.2H29.3027V82H25.2707V75.16H18.7187V82H14.6867Z" fill="#4751A6"/>
<path d="M25.1084 30C23.7324 29.984 22.4924 29.76 21.3884 29.328C20.2844 28.896 19.3484 28.304 18.5804 27.552C17.8124 26.8 17.2204 25.92 16.8044 24.912C16.3884 23.888 16.1804 22.784 16.1804 21.6C16.1804 20.416 16.3884 19.32 16.8044 18.312C17.2204 17.288 17.8124 16.4 18.5804 15.648C19.3644 14.896 20.3004 14.304 21.3884 13.872C22.4924 13.44 23.7324 13.216 25.1084 13.2H27.7004V16.56H25.2044C24.4524 16.576 23.7644 16.712 23.1404 16.968C22.5324 17.224 22.0044 17.576 21.5564 18.024C21.1244 18.472 20.7884 19 20.5484 19.608C20.3244 20.216 20.2124 20.88 20.2124 21.6C20.2124 22.32 20.3244 22.984 20.5484 23.592C20.7884 24.2 21.1244 24.728 21.5564 25.176C22.0044 25.624 22.5324 25.976 23.1404 26.232C23.7644 26.488 24.4524 26.624 25.2044 26.64H27.7004V30H25.1084Z" fill="#4751A6"/>
<path d="M74.0133 30.288C73.2293 30.288 72.5253 30.112 71.9013 29.76C71.2773 29.392 70.8293 28.824 70.5573 28.056L65.4453 13.2H69.7893L73.6773 26.208C73.7093 26.304 73.7493 26.376 73.7973 26.424C73.8613 26.472 73.9333 26.496 74.0133 26.496C74.0933 26.496 74.1573 26.472 74.2053 26.424C74.2693 26.376 74.3173 26.304 74.3493 26.208L78.3093 13.2H82.5573L77.4693 28.056C77.1973 28.808 76.7493 29.368 76.1253 29.736C75.5013 30.104 74.7973 30.288 74.0133 30.288Z" fill="#4751A6"/>
<path d="M77.3351 82.288C76.3271 82.288 75.4231 82.072 74.6231 81.64C73.8231 81.192 73.1911 80.576 72.7271 79.792C72.2631 79.008 72.0311 78.12 72.0311 77.128V69.784C72.0311 69.528 71.9671 69.296 71.8391 69.088C71.7111 68.88 71.5431 68.712 71.3351 68.584C71.1271 68.456 70.8951 68.392 70.6391 68.392C70.3831 68.392 70.1511 68.456 69.9431 68.584C69.7351 68.712 69.5671 68.88 69.4391 69.088C69.3271 69.296 69.2711 69.528 69.2711 69.784V82H65.3351V70.072C65.3351 69.064 65.5591 68.176 66.0071 67.408C66.4711 66.64 67.1031 66.032 67.9031 65.584C68.7191 65.136 69.6311 64.912 70.6391 64.912C71.6631 64.912 72.5751 65.136 73.3751 65.584C74.1751 66.032 74.8071 66.64 75.2711 67.408C75.7351 68.176 75.9671 69.064 75.9671 70.072V77.416C75.9671 77.672 76.0311 77.912 76.1591 78.136C76.2871 78.344 76.4471 78.512 76.6391 78.64C76.8471 78.752 77.0711 78.808 77.3111 78.808C77.5671 78.808 77.7991 78.752 78.0071 78.64C78.2311 78.512 78.4071 78.344 78.5351 78.136C78.6631 77.912 78.7271 77.672 78.7271 77.416V65.2H82.6391V77.128C82.6391 78.12 82.4071 79.008 81.9431 79.792C81.4791 80.576 80.8471 81.192 80.0471 81.64C79.2471 82.072 78.3431 82.288 77.3351 82.288Z" fill="#4751A6"/>
</svg>
