<svg width="96" height="96" viewBox="0 0 96 96" fill="none" xmlns="http://www.w3.org/2000/svg">
<rect x="4" y="4" width="36" height="88" rx="12" stroke="#4751A6" stroke-width="8" stroke-linejoin="round"/>
<rect x="56" y="4" width="36" height="88" rx="12" stroke="#4751A6" stroke-width="8" stroke-linejoin="round"/>
<path d="M74.0133 56.288C73.2293 56.288 72.5253 56.112 71.9013 55.76C71.2773 55.392 70.8293 54.824 70.5573 54.056L65.4453 39.2H69.7893L73.6773 52.208C73.7093 52.304 73.7493 52.376 73.7973 52.424C73.8613 52.472 73.9333 52.496 74.0133 52.496C74.0933 52.496 74.1573 52.472 74.2053 52.424C74.2693 52.376 74.3173 52.304 74.3493 52.208L78.3093 39.2H82.5573L77.4693 54.056C77.1973 54.808 76.7493 55.368 76.1253 55.736C75.5013 56.104 74.7973 56.288 74.0133 56.288Z" fill="#4751A6"/>
<path d="M25.1084 56C23.7324 55.984 22.4924 55.76 21.3884 55.328C20.2844 54.896 19.3484 54.304 18.5804 53.552C17.8124 52.8 17.2204 51.92 16.8044 50.912C16.3884 49.888 16.1804 48.784 16.1804 47.6C16.1804 46.416 16.3884 45.32 16.8044 44.312C17.2204 43.288 17.8124 42.4 18.5804 41.648C19.3644 40.896 20.3004 40.304 21.3884 39.872C22.4924 39.44 23.7324 39.216 25.1084 39.2H27.7004V42.56H25.2044C24.4524 42.576 23.7644 42.712 23.1404 42.968C22.5324 43.224 22.0044 43.576 21.5564 44.024C21.1244 44.472 20.7884 45 20.5484 45.608C20.3244 46.216 20.2124 46.88 20.2124 47.6C20.2124 48.32 20.3244 48.984 20.5484 49.592C20.7884 50.2 21.1244 50.728 21.5564 51.176C22.0044 51.624 22.5324 51.976 23.1404 52.232C23.7644 52.488 24.4524 52.624 25.2044 52.64H27.7004V56H25.1084Z" fill="#4751A6"/>
</svg>
