<svg width="96" height="96" viewBox="0 0 96 96" fill="none" xmlns="http://www.w3.org/2000/svg">
<rect x="4" y="4" width="36" height="88" rx="12" stroke="#4751A6" stroke-width="8" stroke-linejoin="round"/>
<rect x="56" y="56" width="36" height="36" rx="12" stroke="#4751A6" stroke-width="8" stroke-linejoin="round"/>
<rect x="56" y="4" width="36" height="36" rx="12" stroke="#4751A6" stroke-width="8" stroke-linejoin="round"/>
<path d="M25.1084 56C23.7324 55.984 22.4924 55.76 21.3884 55.328C20.2844 54.896 19.3484 54.304 18.5804 53.552C17.8124 52.8 17.2204 51.92 16.8044 50.912C16.3884 49.888 16.1804 48.784 16.1804 47.6C16.1804 46.416 16.3884 45.32 16.8044 44.312C17.2204 43.288 17.8124 42.4 18.5804 41.648C19.3644 40.896 20.3004 40.304 21.3884 39.872C22.4924 39.44 23.7324 39.216 25.1084 39.2H27.7004V42.56H25.2044C24.4524 42.576 23.7644 42.712 23.1404 42.968C22.5324 43.224 22.0044 43.576 21.5564 44.024C21.1244 44.472 20.7884 45 20.5484 45.608C20.3244 46.216 20.2124 46.88 20.2124 47.6C20.2124 48.32 20.3244 48.984 20.5484 49.592C20.7884 50.2 21.1244 50.728 21.5564 51.176C22.0044 51.624 22.5324 51.976 23.1404 52.232C23.7644 52.488 24.4524 52.624 25.2044 52.64H27.7004V56H25.1084Z" fill="#4751A6"/>
<path d="M74.0133 30.288C73.2293 30.288 72.5253 30.112 71.9013 29.76C71.2773 29.392 70.8293 28.824 70.5573 28.056L65.4453 13.2H69.7893L73.6773 26.208C73.7093 26.304 73.7493 26.376 73.7973 26.424C73.8613 26.472 73.9333 26.496 74.0133 26.496C74.0933 26.496 74.1573 26.472 74.2053 26.424C74.2693 26.376 74.3173 26.304 74.3493 26.208L78.3093 13.2H82.5573L77.4693 28.056C77.1973 28.808 76.7493 29.368 76.1253 29.736C75.5013 30.104 74.7973 30.288 74.0133 30.288Z" fill="#4751A6"/>
<path d="M77.3351 82.288C76.3271 82.288 75.4231 82.072 74.6231 81.64C73.8231 81.192 73.1911 80.576 72.7271 79.792C72.2631 79.008 72.0311 78.12 72.0311 77.128V69.784C72.0311 69.528 71.9671 69.296 71.8391 69.088C71.7111 68.88 71.5431 68.712 71.3351 68.584C71.1271 68.456 70.8951 68.392 70.6391 68.392C70.3831 68.392 70.1511 68.456 69.9431 68.584C69.7351 68.712 69.5671 68.88 69.4391 69.088C69.3271 69.296 69.2711 69.528 69.2711 69.784V82H65.3351V70.072C65.3351 69.064 65.5591 68.176 66.0071 67.408C66.4711 66.64 67.1031 66.032 67.9031 65.584C68.7191 65.136 69.6311 64.912 70.6391 64.912C71.6631 64.912 72.5751 65.136 73.3751 65.584C74.1751 66.032 74.8071 66.64 75.2711 67.408C75.7351 68.176 75.9671 69.064 75.9671 70.072V77.416C75.9671 77.672 76.0311 77.912 76.1591 78.136C76.2871 78.344 76.4471 78.512 76.6391 78.64C76.8471 78.752 77.0711 78.808 77.3111 78.808C77.5671 78.808 77.7991 78.752 78.0071 78.64C78.2311 78.512 78.4071 78.344 78.5351 78.136C78.6631 77.912 78.7271 77.672 78.7271 77.416V65.2H82.6391V77.128C82.6391 78.12 82.4071 79.008 81.9431 79.792C81.4791 80.576 80.8471 81.192 80.0471 81.64C79.2471 82.072 78.3431 82.288 77.3351 82.288Z" fill="#4751A6"/>
</svg>
