<svg width="96" height="96" viewBox="0 0 96 96" fill="none" xmlns="http://www.w3.org/2000/svg">
<rect x="4" y="4" width="88" height="88" rx="12" stroke="#4751A6" stroke-width="8" stroke-linejoin="round"/>
<path d="M48.0133 56.288C47.2293 56.288 46.5253 56.112 45.9013 55.76C45.2773 55.392 44.8293 54.824 44.5573 54.056L39.4453 39.2H43.7893L47.6773 52.208C47.7093 52.304 47.7493 52.376 47.7973 52.424C47.8613 52.472 47.9333 52.496 48.0133 52.496C48.0933 52.496 48.1573 52.472 48.2053 52.424C48.2693 52.376 48.3173 52.304 48.3493 52.208L52.3093 39.2H56.5573L51.4693 54.056C51.1973 54.808 50.7493 55.368 50.1253 55.736C49.5013 56.104 48.7973 56.288 48.0133 56.288Z" fill="#4751A6"/>
</svg>
