<svg width="96" height="96" viewBox="0 0 96 96" fill="none" xmlns="http://www.w3.org/2000/svg">
<rect x="4" y="56" width="88" height="36" rx="12" stroke="#4751A6" stroke-width="8" stroke-linejoin="round"/>
<rect x="4" y="4" width="88" height="36" rx="12" stroke="#4751A6" stroke-width="8" stroke-linejoin="round"/>
<path d="M51.3351 82.288C50.3271 82.288 49.4231 82.072 48.6231 81.64C47.8231 81.192 47.1911 80.576 46.7271 79.792C46.2631 79.008 46.0311 78.12 46.0311 77.128V69.784C46.0311 69.528 45.9671 69.296 45.8391 69.088C45.7111 68.88 45.5431 68.712 45.3351 68.584C45.1271 68.456 44.8951 68.392 44.6391 68.392C44.3831 68.392 44.1511 68.456 43.9431 68.584C43.7351 68.712 43.5671 68.88 43.4391 69.088C43.3271 69.296 43.2711 69.528 43.2711 69.784V82H39.3351V70.072C39.3351 69.064 39.5591 68.176 40.0071 67.408C40.4711 66.64 41.1031 66.032 41.9031 65.584C42.7191 65.136 43.6311 64.912 44.6391 64.912C45.6631 64.912 46.5751 65.136 47.3751 65.584C48.1751 66.032 48.8071 66.64 49.2711 67.408C49.7351 68.176 49.9671 69.064 49.9671 70.072V77.416C49.9671 77.672 50.0311 77.912 50.1591 78.136C50.2871 78.344 50.4471 78.512 50.6391 78.64C50.8471 78.752 51.0711 78.808 51.3111 78.808C51.5671 78.808 51.7991 78.752 52.0071 78.64C52.2311 78.512 52.4071 78.344 52.5351 78.136C52.6631 77.912 52.7271 77.672 52.7271 77.416V65.2H56.6391V77.128C56.6391 78.12 56.4071 79.008 55.9431 79.792C55.4791 80.576 54.8471 81.192 54.0471 81.64C53.2471 82.072 52.3431 82.288 51.3351 82.288Z" fill="#4751A6"/>
<path d="M48.0133 30.288C47.2293 30.288 46.5253 30.112 45.9013 29.76C45.2773 29.392 44.8293 28.824 44.5573 28.056L39.4453 13.2H43.7893L47.6773 26.208C47.7093 26.304 47.7493 26.376 47.7973 26.424C47.8613 26.472 47.9333 26.496 48.0133 26.496C48.0933 26.496 48.1573 26.472 48.2053 26.424C48.2693 26.376 48.3173 26.304 48.3493 26.208L52.3093 13.2H56.5573L51.4693 28.056C51.1973 28.808 50.7493 29.368 50.1253 29.736C49.5013 30.104 48.7973 30.288 48.0133 30.288Z" fill="#4751A6"/>
</svg>
