<svg width="96" height="96" viewBox="0 0 96 96" fill="none" xmlns="http://www.w3.org/2000/svg">
<rect x="4" y="56" width="36" height="36" rx="12" stroke="#4751A6" stroke-width="8" stroke-linejoin="round"/>
<rect x="56" y="4" width="36" height="88" rx="12" stroke="#4751A6" stroke-width="8" stroke-linejoin="round"/>
<path fill-rule="evenodd" clip-rule="evenodd" d="M0.991331 0.991331C2.31311 -0.330444 4.45613 -0.330444 5.7779 0.991331L22 17.2134L38.2221 0.991331C39.5439 -0.330444 41.6869 -0.330444 43.0087 0.991331C44.3304 2.31311 44.3304 4.45613 43.0087 5.7779L26.7866 22L43.0087 38.2221C44.3304 39.5439 44.3304 41.6869 43.0087 43.0087C41.6869 44.3304 39.5439 44.3304 38.2221 43.0087L22 26.7866L5.7779 43.0087C4.45613 44.3304 2.31311 44.3304 0.991331 43.0087C-0.330444 41.6869 -0.330444 39.5439 0.991331 38.2221L17.2134 22L0.991331 5.7779C-0.330444 4.45613 -0.330444 2.31311 0.991331 0.991331Z" fill="#4751A6"/>
<path d="M74.0133 56.288C73.2293 56.288 72.5253 56.112 71.9013 55.76C71.2773 55.392 70.8293 54.824 70.5573 54.056L65.4453 39.2H69.7893L73.6773 52.208C73.7093 52.304 73.7493 52.376 73.7973 52.424C73.8613 52.472 73.9333 52.496 74.0133 52.496C74.0933 52.496 74.1573 52.472 74.2053 52.424C74.2693 52.376 74.3173 52.304 74.3493 52.208L78.3093 39.2H82.5573L77.4693 54.056C77.1973 54.808 76.7493 55.368 76.1253 55.736C75.5013 56.104 74.7973 56.288 74.0133 56.288Z" fill="#4751A6"/>
<path d="M14.6867 82V65.2H18.7187V71.8H25.2707V65.2H29.3027V82H25.2707V75.16H18.7187V82H14.6867Z" fill="#4751A6"/>
</svg>
